<svg xmlns="http://www.w3.org/2000/svg" width="480" height="360" viewBox="0 0 480 360" role="img"><title>a butcher</title><rect width="480" height="360" rx="28" fill="#faf7f0"/><ellipse cx="240" cy="308" rx="182" ry="14" fill="#eae5db"/><g transform="translate(145 115) scale(1)"><path d="M -20 104 L -27 153 M 20 104 L 27 153" fill="none" stroke="#253c50" stroke-width="12" stroke-linecap="round" stroke-linejoin="round"/><rect x="-32" y="50" width="64" height="62" rx="12" fill="#48a99f" stroke="#253c50" stroke-width="5"/><path d="M -32 66 L -60 101 M 32 66 L 60 101" fill="none" stroke="#253c50" stroke-width="11" stroke-linecap="round" stroke-linejoin="round"/><circle cx="0" cy="15" r="33" fill="#f3bd97" stroke="#253c50" stroke-width="4"/><path d="M -29 8 Q -26 -25 7 -18 Q 24 -19 30 2" fill="#253c50" stroke="#253c50" stroke-width="5" stroke-linecap="round" stroke-linejoin="round"/><circle cx="-12" cy="13" r="2" fill="#253c50" stroke="#253c50" stroke-width="4"/><circle cx="12" cy="13" r="2" fill="#253c50" stroke="#253c50" stroke-width="4"/><path d="M -12 29 Q 0 40 12 29" fill="none" stroke="#253c50" stroke-width="5" stroke-linecap="round" stroke-linejoin="round"/></g><rect x="100" y="182" width="90" height="75" rx="12" fill="white" stroke="#253c50" stroke-width="5"/><rect x="205" y="237" width="190" height="43" rx="12" fill="#cfb291" stroke="#253c50" stroke-width="5"/><ellipse cx="287" cy="220" rx="48" ry="23" fill="#ed796b" stroke="#253c50" stroke-width="4"/><path d="M 334 146 L 370 166 L 334 211 L 310 187 Z" fill="#cbdde2" stroke="#253c50" stroke-width="5" stroke-linecap="round" stroke-linejoin="round"/><path d="M 335 147 L 349 127" fill="#253c50" stroke="#253c50" stroke-width="14" stroke-linecap="round" stroke-linejoin="round"/></svg>